<svg xmlns="http://www.w3.org/2000/svg" viewBox="15.875 15.875 100.54167 100.54167">
  <g transform="matrix(5.0000008,0,0,5.0000008,-42.52233,-1355.54332)">
    <path d="M 27.025297,279.04612 H 16.441964 v 10.58333 h 10.583333 z" fill="#fff"/>
    <path d="m 27.025297,294.39195 4.7625,-4.7625 h -4.7625 z" fill="#ea4335"/>
    <path d="m 31.787797,279.04612 h -4.7625 v 10.58333 h 4.7625 z" fill="#fbbc04"/>
    <path d="M 27.025297,289.62945 H 16.441964 v 4.7625 h 10.583333 z" fill="#34a853"/>
    <path d="m 11.679464,289.62945 v 3.175 c 0,0.8771 0.710406,1.5875 1.5875,1.5875 h 3.175 v -4.7625 z" fill="#188038"/>
    <path d="m 31.787797,279.04612 v -3.175 c 0,-0.87709 -0.710406,-1.5875 -1.5875,-1.5875 h -3.175 v 4.7625 z" fill="#1967d2"/>
    <path d="M 27.025297,274.28362 H 13.266964 c -0.877094,0 -1.5875,0.71041 -1.5875,1.5875 v 13.75833 h 4.7625 v -10.58333 h 10.583333 z" fill="#4285f4"/>
    <path d="m 18.61287,287.25614 c -0.395552,-0.26723 -0.669396,-0.65749 -0.818885,-1.17343 l 0.918104,-0.37835 c 0.08334,0.3175 0.228865,0.56356 0.436563,0.73819 0.206375,0.17462 0.457729,0.26061 0.751416,0.26061 0.300302,0 0.558271,-0.0913 0.773906,-0.27384 0.215636,-0.18256 0.324115,-0.4154 0.324115,-0.69718 0,-0.2884 -0.113771,-0.52387 -0.341312,-0.70644 -0.227542,-0.18256 -0.513292,-0.27384 -0.854605,-0.27384 h -0.530489 v -0.90884 h 0.47625 c 0.293687,0 0.541073,-0.0794 0.742156,-0.23813 0.201083,-0.15875 0.301625,-0.37571 0.301625,-0.6522 0,-0.24606 -0.08996,-0.44185 -0.269875,-0.5887 -0.179917,-0.14684 -0.407458,-0.22092 -0.683948,-0.22092 -0.269875,0 -0.484187,0.0714 -0.642937,0.21563 a 1.2657667,1.2657667 0 0 0 -0.346605,0.53049 l -0.908843,-0.37835 c 0.120385,-0.34131 0.341312,-0.64294 0.665427,-0.90355 0.324114,-0.26062 0.738187,-0.39159 1.240896,-0.39159 0.371739,0 0.706437,0.0714 1.00277,0.21564 0.296334,0.1442 0.529167,0.34396 0.697178,0.59796 0.16801,0.25532 0.251354,0.54107 0.251354,0.85857 0,0.32411 -0.07805,0.59796 -0.234157,0.82285 -0.156104,0.2249 -0.347927,0.39688 -0.575468,0.51726 v 0.0542 a 1.7475729,1.7475729 0 0 1 0.738187,0.57547 c 0.191823,0.25797 0.288396,0.56621 0.288396,0.92604 0,0.35984 -0.09128,0.68131 -0.273844,0.96309 -0.182562,0.28178 -0.435239,0.50403 -0.755385,0.66542 -0.321469,0.1614 -0.682625,0.24342 -1.083469,0.24342 -0.464344,10e-4 -0.892969,-0.13229 -1.288521,-0.39952 z m 5.639594,-4.55612 -1.008063,0.72892 -0.504031,-0.76464 1.808427,-1.3044 h 0.693208 v 6.15289 h -0.989541 z" fill="#4285f4"/>
  </g>
</svg>
